<mxfile host="www.draw.io" modified="2020-01-07T10:53:43.509Z" agent="Mozilla/5.0 (X11; Linux x86_64) AppleWebKit/537.36 (KHTML, like Gecko) Chrome/79.0.3945.88 Safari/537.36" etag="KdWkSEXCNOEO9cvsN9Lo" version="12.4.9" type="github">
  <diagram id="kO1AvvXbOH91dg5-w900" name="第 1 页">
    <mxGraphModel dx="1234" dy="491" grid="1" gridSize="10" guides="1" tooltips="1" connect="1" arrows="1" fold="1" page="1" pageScale="1" pageWidth="827" pageHeight="1169" math="0" shadow="0">
      <root>
        <mxCell id="0"/>
        <mxCell id="1" parent="0"/>
        <mxCell id="41l9phWQHW_q7inhI02W-3" style="edgeStyle=orthogonalEdgeStyle;rounded=0;orthogonalLoop=1;jettySize=auto;html=1;entryX=0;entryY=0.5;entryDx=0;entryDy=0;" edge="1" parent="1" source="41l9phWQHW_q7inhI02W-1" target="41l9phWQHW_q7inhI02W-2">
          <mxGeometry relative="1" as="geometry"/>
        </mxCell>
        <mxCell id="41l9phWQHW_q7inhI02W-4" value="执行 hdfs dfs -ls /" style="text;html=1;align=center;verticalAlign=middle;resizable=0;points=[];labelBackgroundColor=#ffffff;" vertex="1" connectable="0" parent="41l9phWQHW_q7inhI02W-3">
          <mxGeometry x="-0.1889" relative="1" as="geometry">
            <mxPoint as="offset"/>
          </mxGeometry>
        </mxCell>
        <mxCell id="41l9phWQHW_q7inhI02W-1" value="hdfs shell" style="rounded=0;whiteSpace=wrap;html=1;" vertex="1" parent="1">
          <mxGeometry x="10" y="120" width="120" height="60" as="geometry"/>
        </mxCell>
        <mxCell id="41l9phWQHW_q7inhI02W-7" style="edgeStyle=orthogonalEdgeStyle;rounded=0;orthogonalLoop=1;jettySize=auto;html=1;exitX=1;exitY=0.25;exitDx=0;exitDy=0;entryX=0;entryY=0.5;entryDx=0;entryDy=0;" edge="1" parent="1" source="41l9phWQHW_q7inhI02W-2" target="41l9phWQHW_q7inhI02W-5">
          <mxGeometry relative="1" as="geometry"/>
        </mxCell>
        <mxCell id="41l9phWQHW_q7inhI02W-8" style="edgeStyle=orthogonalEdgeStyle;rounded=0;orthogonalLoop=1;jettySize=auto;html=1;exitX=1;exitY=0.75;exitDx=0;exitDy=0;entryX=0;entryY=0.5;entryDx=0;entryDy=0;" edge="1" parent="1" source="41l9phWQHW_q7inhI02W-2" target="41l9phWQHW_q7inhI02W-6">
          <mxGeometry relative="1" as="geometry"/>
        </mxCell>
        <mxCell id="41l9phWQHW_q7inhI02W-2" value="FsShell" style="rounded=0;whiteSpace=wrap;html=1;" vertex="1" parent="1">
          <mxGeometry x="310" y="120" width="120" height="60" as="geometry"/>
        </mxCell>
        <mxCell id="41l9phWQHW_q7inhI02W-12" style="edgeStyle=orthogonalEdgeStyle;rounded=0;orthogonalLoop=1;jettySize=auto;html=1;entryX=0;entryY=0.25;entryDx=0;entryDy=0;" edge="1" parent="1" source="41l9phWQHW_q7inhI02W-5" target="41l9phWQHW_q7inhI02W-10">
          <mxGeometry relative="1" as="geometry"/>
        </mxCell>
        <mxCell id="41l9phWQHW_q7inhI02W-5" value="Ls &lt;br&gt;extends FsCommand" style="rounded=0;whiteSpace=wrap;html=1;" vertex="1" parent="1">
          <mxGeometry x="500" y="70" width="120" height="60" as="geometry"/>
        </mxCell>
        <mxCell id="41l9phWQHW_q7inhI02W-13" style="edgeStyle=orthogonalEdgeStyle;rounded=0;orthogonalLoop=1;jettySize=auto;html=1;entryX=0;entryY=0.75;entryDx=0;entryDy=0;" edge="1" parent="1" source="41l9phWQHW_q7inhI02W-6" target="41l9phWQHW_q7inhI02W-10">
          <mxGeometry relative="1" as="geometry"/>
        </mxCell>
        <mxCell id="41l9phWQHW_q7inhI02W-6" value="Mkdir&amp;nbsp;&lt;br&gt;extends FsCommand" style="rounded=0;whiteSpace=wrap;html=1;" vertex="1" parent="1">
          <mxGeometry x="500" y="170" width="120" height="60" as="geometry"/>
        </mxCell>
        <mxCell id="41l9phWQHW_q7inhI02W-9" value="run()" style="text;html=1;strokeColor=none;fillColor=none;align=center;verticalAlign=middle;whiteSpace=wrap;rounded=0;" vertex="1" parent="1">
          <mxGeometry x="430" y="140" width="40" height="20" as="geometry"/>
        </mxCell>
        <mxCell id="41l9phWQHW_q7inhI02W-26" style="edgeStyle=orthogonalEdgeStyle;rounded=0;orthogonalLoop=1;jettySize=auto;html=1;entryX=1;entryY=0.5;entryDx=0;entryDy=0;" edge="1" parent="1" source="41l9phWQHW_q7inhI02W-10" target="41l9phWQHW_q7inhI02W-11">
          <mxGeometry relative="1" as="geometry">
            <Array as="points">
              <mxPoint x="740" y="300"/>
            </Array>
          </mxGeometry>
        </mxCell>
        <mxCell id="41l9phWQHW_q7inhI02W-10" value="PathData" style="rounded=0;whiteSpace=wrap;html=1;" vertex="1" parent="1">
          <mxGeometry x="680" y="120" width="120" height="60" as="geometry"/>
        </mxCell>
        <mxCell id="41l9phWQHW_q7inhI02W-27" style="edgeStyle=orthogonalEdgeStyle;rounded=0;orthogonalLoop=1;jettySize=auto;html=1;entryX=0.5;entryY=0;entryDx=0;entryDy=0;" edge="1" parent="1" source="41l9phWQHW_q7inhI02W-11" target="41l9phWQHW_q7inhI02W-15">
          <mxGeometry relative="1" as="geometry"/>
        </mxCell>
        <mxCell id="41l9phWQHW_q7inhI02W-11" value="FileSystem" style="rounded=0;whiteSpace=wrap;html=1;" vertex="1" parent="1">
          <mxGeometry x="10" y="270" width="120" height="60" as="geometry"/>
        </mxCell>
        <mxCell id="41l9phWQHW_q7inhI02W-20" style="edgeStyle=orthogonalEdgeStyle;rounded=0;orthogonalLoop=1;jettySize=auto;html=1;entryX=0;entryY=0.5;entryDx=0;entryDy=0;" edge="1" parent="1" source="41l9phWQHW_q7inhI02W-15" target="41l9phWQHW_q7inhI02W-16">
          <mxGeometry relative="1" as="geometry"/>
        </mxCell>
        <mxCell id="41l9phWQHW_q7inhI02W-15" value="FileSystem get(Configuration conf)" style="rounded=0;whiteSpace=wrap;html=1;" vertex="1" parent="1">
          <mxGeometry x="10" y="400" width="120" height="60" as="geometry"/>
        </mxCell>
        <mxCell id="41l9phWQHW_q7inhI02W-22" style="edgeStyle=orthogonalEdgeStyle;rounded=0;orthogonalLoop=1;jettySize=auto;html=1;entryX=0;entryY=0.5;entryDx=0;entryDy=0;" edge="1" parent="1" source="41l9phWQHW_q7inhI02W-16" target="41l9phWQHW_q7inhI02W-21">
          <mxGeometry relative="1" as="geometry"/>
        </mxCell>
        <mxCell id="41l9phWQHW_q7inhI02W-16" value="DistributedFileSystem" style="rounded=0;whiteSpace=wrap;html=1;" vertex="1" parent="1">
          <mxGeometry x="190" y="400" width="140" height="60" as="geometry"/>
        </mxCell>
        <mxCell id="41l9phWQHW_q7inhI02W-17" value="Java API" style="text;html=1;strokeColor=none;fillColor=none;align=center;verticalAlign=middle;whiteSpace=wrap;rounded=0;" vertex="1" parent="1">
          <mxGeometry x="20" y="460" width="100" height="30" as="geometry"/>
        </mxCell>
        <mxCell id="41l9phWQHW_q7inhI02W-18" value="Shell" style="text;html=1;align=center;verticalAlign=middle;resizable=0;points=[];autosize=1;" vertex="1" parent="1">
          <mxGeometry x="50" y="180" width="40" height="20" as="geometry"/>
        </mxCell>
        <mxCell id="41l9phWQHW_q7inhI02W-24" style="edgeStyle=orthogonalEdgeStyle;rounded=0;orthogonalLoop=1;jettySize=auto;html=1;entryX=0;entryY=0.5;entryDx=0;entryDy=0;" edge="1" parent="1" source="41l9phWQHW_q7inhI02W-21" target="41l9phWQHW_q7inhI02W-23">
          <mxGeometry relative="1" as="geometry"/>
        </mxCell>
        <mxCell id="41l9phWQHW_q7inhI02W-21" value="DFSClient" style="rounded=0;whiteSpace=wrap;html=1;" vertex="1" parent="1">
          <mxGeometry x="390" y="400" width="120" height="60" as="geometry"/>
        </mxCell>
        <mxCell id="41l9phWQHW_q7inhI02W-23" value="ClientProtocol&lt;br&gt;（NameNode代理）" style="rounded=0;whiteSpace=wrap;html=1;" vertex="1" parent="1">
          <mxGeometry x="590" y="400" width="120" height="60" as="geometry"/>
        </mxCell>
      </root>
    </mxGraphModel>
  </diagram>
</mxfile>
